inDegrees=no
num_controls=7
num_derivatives=13
num_iterations=120
num_multipliers=7
num_parameters=0
num_slacks=7
num_states=26
objective=5.446908
objective_accelerations=0.802492
objective_balance=0.018800
objective_effort=0.187292
objective_height=4.364553
objective_ligament=0.073771
solver_duration=1453.581527
status=Solve_Succeeded
success=true
DataType=double
version=3
OpenSimVersion=4.4-2022-07-23-0e9fedc
endheader
time	/jointset/ground_pelvis/pelvis_tilt/value	/jointset/ground_pelvis/pelvis_tx/value	/jointset/ground_pelvis/pelvis_ty/value	/jointset/hip_l/hip_flexion_l/value	/jointset/hip_l/hip_adduction_l/value	/jointset/hip_l/hip_rotation_l/value	/jointset/back/lumbar_extension/value	/jointset/patellofemoral_l/patellar_flexion_l/value	/jointset/knee_l/knee_flexion_l/value	/jointset/knee_l/knee_adduction_l/value	/jointset/knee_l/knee_rotation_l/value	/jointset/ankle_l/ankle_angle_l/value	/jointset/subtalar_l/subtalar_angle_l/value	/jointset/ground_pelvis/pelvis_tilt/speed	/jointset/ground_pelvis/pelvis_tx/speed	/jointset/ground_pelvis/pelvis_ty/speed	/jointset/hip_l/hip_flexion_l/speed	/jointset/hip_l/hip_adduction_l/speed	/jointset/hip_l/hip_rotation_l/speed	/jointset/back/lumbar_extension/speed	/jointset/patellofemoral_l/patellar_flexion_l/speed	/jointset/knee_l/knee_flexion_l/speed	/jointset/knee_l/knee_adduction_l/speed	/jointset/knee_l/knee_rotation_l/speed	/jointset/ankle_l/ankle_angle_l/speed	/jointset/subtalar_l/subtalar_angle_l/speed	/forceset/tau_hip_flexion_l	/forceset/tau_hip_adduction_l	/forceset/tau_hip_rotation_l	/forceset/tau_knee_flexion_l	/forceset/tau_ankle_angle_l	/forceset/tau_subtalar_angle_l	/forceset/tau_lumbar_extension	lambda_cid13_p0	lambda_cid13_p1	lambda_cid13_p2	lambda_cid13_p3	lambda_cid13_p4	lambda_cid13_p5	lambda_cid14_p0	/jointset/ground_pelvis/pelvis_tilt/accel	/jointset/ground_pelvis/pelvis_tx/accel	/jointset/ground_pelvis/pelvis_ty/accel	/jointset/hip_l/hip_flexion_l/accel	/jointset/hip_l/hip_adduction_l/accel	/jointset/hip_l/hip_rotation_l/accel	/jointset/back/lumbar_extension/accel	/jointset/patellofemoral_l/patellar_flexion_l/accel	/jointset/knee_l/knee_flexion_l/accel	/jointset/knee_l/knee_adduction_l/accel	/jointset/knee_l/knee_rotation_l/accel	/jointset/ankle_l/ankle_angle_l/accel	/jointset/subtalar_l/subtalar_angle_l/accel	gamma_cid13_p0	gamma_cid13_p1	gamma_cid13_p2	gamma_cid13_p3	gamma_cid13_p4	gamma_cid13_p5	gamma_cid14_p0
1.5	-0.3646434884553039	0.04431545626318476	0.7809458534111703	1.064692135754355	-0.3538537660519747	-0.04808064519430864	-0.3339073735271395	0.8557104950000504	0.855710495000064	-0.01740484487761521	-0.1724152801045103	0.2783878281441374	0.1620316215813216	0.5357536906578565	0.27892809253701	0.5439913124644881	-2.462547672702536	-0.006276837229171549	-0.597648604780661	0.6122234039913729	-2.304928157505196	-2.304928157505355	-0.3423418308434923	0.03480064374449561	-0.5576980013615603	-0.2331069231913866	-0.1376883189573589	0.02652099115776388	-0.003449032750418505	-0.1343641148906458	-0.03341393589970307	0.02518179893690899	0.1295256327716106	-32.67905332142855	-7.230406720136637	3.174262126608941	-5.159806135578512	-427.1726572034771	-67.41129380405661	-8.59018932976004	0.6485237399522901	0.67920490708779	-0.8237446871927651	-1.38555939145711	0.3156802332892119	-0.5748620973376475	1.681137645672925	-1.229316713666448	-1.229316713666472	-0.08134130214634225	0.335532944466499	-0.5613032692078458	0.4443552159098356	7.525157409013562e-07	-6.338941820803602e-07	-9.107338115495809e-06	-5.349853957355307e-07	1.727906606071072e-06	1.58300250290383e-06	1.015396860098042e-06
1.51	-0.3592536422228608	0.04713839021215061	0.7863435112608732	1.039998865627655	-0.3539038287185282	-0.05407702059748056	-0.3277030575760051	0.8326018228432336	0.8326018228432209	-0.02084391881727038	-0.1720487063826907	0.272782574904343	0.159718390758987	0.5421112932927105	0.2856190121427356	0.5354188252759788	-2.475768719388624	-0.003743134874347564	-0.6015680610348741	0.628541671409961	-2.316491372609306	-2.316491372609328	-0.3454636511525538	0.03853342401126449	-0.5632535819336888	-0.2295154183499879	-0.1327514458684003	0.02615808589440917	-0.002633897645245536	-0.1313936391911358	-0.03254917632323169	0.02375883598615075	0.1254739468309808	-32.32835013193866	-6.758024069414534	3.195130430726007	-5.044223163784383	-423.5874051165245	-66.47529736760904	-9.55495295046525	0.6138038484563527	0.6579809341763002	-0.8918603105003516	-1.239629346193612	0.2225128158446957	-0.290674733668346	1.592454066081806	-1.072784552811689	-1.07278455279112	-0.4265503110023485	0.393376461921992	-0.5378251605149814	0.3212778583499593	7.479500743230046e-07	-6.023525592356447e-07	-9.001125003257353e-06	-5.177891074974215e-07	1.759827087797374e-06	1.838074988656951e-06	9.914787854137091e-07
1.52	-0.3538033348994318	0.05002702244654603	0.7916518723235267	1.015183534626288	-0.3539284948456815	-0.06011062803203853	-0.3213385023954599	0.809386926406564	0.8093869264065425	-0.02431400054313643	-0.1716445596793777	0.2671247379169666	0.1574420209330852	0.5478459088557517	0.2920677496229241	0.5261319550546554	-2.486959847635067	-0.001197529348888368	-0.6050950110572976	0.6442712498737522	-2.326173013474555	-2.326173013474439	-0.3485433880902692	0.04231524004363077	-0.5682147508778055	-0.2257347239047881	-0.1278145727794602	0.02579518063102963	-0.001818762539915214	-0.1284231634916254	-0.03168441674676784	0.02233587303535397	0.1214222608903353	-31.96979043156542	-6.291215077031711	3.221688207457541	-4.992800368066181	-419.9128381670413	-65.67368638956003	-10.51825904169148	0.5239263255897366	0.630768481980379	-0.9666212937556157	-0.9795757035283458	0.3180608674162487	-0.4963608509796876	1.563399854713514	-0.8530018658941688	-0.8530018658941806	-0.07292462787715248	0.3453400975859794	-0.4424209436054878	0.4821931366700308	7.330574758987585e-07	-6.051828938025343e-07	-8.764883584075546e-06	-5.025010282030123e-07	1.783665615753198e-06	2.03436420070088e-06	9.483506349779759e-07
1.53	-0.3482987388032562	0.05297858558761615	0.7968638415222197	0.9902668882575355	-0.3539271485058256	-0.0661778556328728	-0.3148198450440456	0.7860848026049143	0.7860848026049315	-0.02781322695666199	-0.1712015439029257	0.2614201022631648	0.1552050200086807	0.552972765490881	0.2981700306542235	0.5161445742404518	-2.495972584861094	0.001482441536750496	-0.6082575640297831	0.659337163862489	-2.333900043660287	-2.333900043660257	-0.351253043562071	0.04634867130979518	-0.5726289766247931	-0.2216228069925835	-0.1234663131606594	0.02388935261077105	-0.0008373847554173098	-0.1243989686283878	-0.03343531212602015	0.02210530212559422	0.1176642136072932	-32.37372088240667	-6.375537101641814	3.526610297394952	-4.159704271282178	-416.435480117028	-66.08449980908073	-11.47763561310238	0.4920398452204293	0.5886342948854933	-1.032031625375292	-0.8025018157239653	0.246634698538673	-0.2113025298038394	1.459728688914312	-0.6799682749295898	-0.6799682749423085	-0.3630502785940665	0.4399394393396362	-0.4284231976492759	0.3831676658953271	7.071925123882498e-07	-6.445334331192542e-07	-8.390487088766434e-06	-4.892404209112844e-07	1.79891706782789e-06	2.168196184428791e-06	8.848117790563805e-07
1.54	-0.3427458792381839	0.05598890681523547	0.8019724898827459	0.965272038699802	-0.3538982685572347	-0.07227372876531772	-0.3081542202491529	0.7627159255654106	0.762715925565455	-0.03133816277926876	-0.1707166748541591	0.2556738243904119	0.153010633592878	0.5574986026358568	0.3038193669327636	0.5054677874213429	-2.502600485430481	0.004309192398434051	-0.610824117379103	0.673664738569649	-2.339523661046694	-2.339523661046748	-0.3536852699043684	0.05068589450427805	-0.57654319466794	-0.2172118221843945	-0.1191180535418754	0.02198352459049379	0.0001439930290448475	-0.1203747737651537	-0.03518620750527888	0.02187473121580809	0.1139061663242378	-32.77210522271316	-6.457116460587388	3.826859043772827	-3.391192476763897	-412.8644585585515	-66.60304958654847	-12.43144966324515	0.4037224275590159	0.5401795314285125	-1.104502494736663	-0.5026083722005471	0.3474168626251936	-0.3771609263465607	1.415731998398141	-0.4323193060289913	-0.4323193060289956	-0.01743880197628731	0.40609848324967	-0.3424194028373971	0.5420067158668888	6.815261588315783e-07	3.248653895209865e-07	-8.027128065804734e-06	-3.404095772844969e-07	1.810166499650671e-06	2.718445540903885e-06	9.198011838127887e-07
1.55	-0.3371507383275528	0.0590540040161697	0.8069711802331967	0.9402214247785566	-0.3538416715579957	-0.07839533686906207	-0.3013495325193768	0.7393007103452091	0.7393007103452158	-0.03488649925555409	-0.1701904349197905	0.2498912784878069	0.1508604276982894	0.5613958956412778	0.3091753990675423	0.4941732376191882	-2.507194154075505	0.006974355437244108	-0.6132803752336483	0.6871382479275443	-2.343195964869759	-2.343195964869765	-0.3561087372121057	0.05467545682920083	-0.5798262475311438	-0.2128336192847529	-0.113319010556706	0.02094639037637525	0.001252917731468266	-0.119990277369087	-0.03112620375124938	0.01948658119455408	0.1093309081856753	-31.50434586427046	-5.550274927599258	3.577601855153784	-4.105327367114121	-409.9141637057148	-65.46141103981925	-13.37906658561243	0.362747024280537	0.5296407432481142	-1.156123881809631	-0.388425255884679	0.2214684288445809	-0.1460712266211187	1.292976485720959	-0.286403365856769	-0.2864033658492732	-0.3735608773921495	0.4110690355870268	-0.3001372057318368	0.3854038828145063	6.560886384825888e-07	2.456518911807226e-06	-7.676486130547661e-06	-3.537824396732324e-08	1.816804908139728e-06	3.748480131196356e-06	1.068312280219934e-06
1.56	-0.3315206216294221	0.0621719266762008	0.8118540865538547	0.9151347383418119	-0.353759342447505	-0.0845347501536657	-0.2944141464797753	0.7158584285977159	0.7158584285976382	-0.03846282244147998	-0.1696211625764232	0.2440801242610361	0.1487539391938573	0.5644937601365767	0.314384458752138	0.4823109814628361	-2.509814988529786	0.009455614649473133	-0.6143851535526926	0.6998044005348707	-2.344936966509281	-2.344936966509236	-0.3592826118086251	0.0592923762930596	-0.5822648595011481	-0.2084683441530423	-0.1075199675715215	0.01990925616230474	0.002361842433475892	-0.1196057809730032	-0.02706619999720127	0.017098431173374	0.104755650047113	-30.22491792902646	-4.652749732568226	3.338143703188827	-4.87782491535686	-406.8362212903843	-64.45376804608675	-14.32094405320288	0.2438367255345932	0.5107850413919055	-1.218043765576166	-0.1080415340519898	0.3106360973090189	-0.1068650192463411	1.254260648284346	-0.0460588693202176	-0.04605886932022388	-0.1675202597327264	0.5315699110368567	-0.1735312241974859	0.5394211622806663	4.408924445270424e-07	4.305970164894283e-06	-5.196845766819688e-06	3.212615863145802e-07	1.351055818348157e-06	3.74030888815907e-06	9.578723741555505e-07
